<svg width="113" height="113" viewBox="0 0 113 113" fill="none" xmlns="http://www.w3.org/2000/svg">
<path d="M3.65625 29.0938C10.6562 29.3437 16.0938 29.4688 19.9688 29.4688C23.8438 29.4688 29.2812 29.3437 36.2812 29.0938C36.4062 29.5938 36.4688 29.9375 36.4688 30.125C36.4688 30.3438 36.4062 30.7344 36.2812 31.2969C34.8438 31.4219 33.6719 31.5625 32.7656 31.7188C31.8906 31.8438 30.7969 32.0625 29.4844 32.375C28.2031 32.6875 27.2188 33.1406 26.5312 33.7344C25.8438 34.2969 25.4844 34.9844 25.4531 35.7969C25.0469 46.4219 24.8438 56.3125 24.8438 65.4688C24.8438 70.1875 25.0156 80.0781 25.3594 95.1406H39.8438C44.4375 94.8281 48.5469 94.1562 52.1719 93.125C55.7969 92.0938 58.8125 90.7812 61.2188 89.1875C63.6562 87.5625 65.6562 85.8906 67.2188 84.1719C68.8125 82.4219 70.1875 80.4688 71.3438 78.3125C72.1562 78.625 72.6875 79.0469 72.9375 79.5781C71.6562 81.9531 70.6562 83.875 69.9375 85.3438C69.25 86.8125 68.4844 88.75 67.6406 91.1562C66.8281 93.5312 66.2969 95.8125 66.0469 98H25.3594C16.8906 98 9.625 98.0938 3.5625 98.2812C3.4375 97.9062 3.375 97.5938 3.375 97.3438C3.375 97.125 3.4375 96.7031 3.5625 96.0781C5 95.9531 6.15625 95.8281 7.03125 95.7031C7.9375 95.5469 9.03125 95.3125 10.3125 95C11.625 94.6875 12.625 94.25 13.3125 93.6875C14 93.0938 14.3594 92.3906 14.3906 91.5781C14.7656 81.7969 14.9531 71.9375 14.9531 62C14.9531 51.875 14.7969 43.1406 14.4844 35.7969C14.4531 34.9844 14.0938 34.2969 13.4062 33.7344C12.7188 33.1406 11.7188 32.6875 10.4062 32.375C9.125 32.0625 8.03125 31.8438 7.125 31.7188C6.25 31.5625 5.09375 31.4219 3.65625 31.2969C3.53125 30.7344 3.46875 30.3438 3.46875 30.125C3.46875 29.8125 3.53125 29.4688 3.65625 29.0938Z" fill="black"/>
<path d="M102.234 28.375C101.234 26.1563 100.25 24.2188 99.2812 22.5625C98.3125 20.875 97.0469 19.125 95.4844 17.3125C93.9219 15.5 92.25 14.0156 90.4688 12.8594C88.6875 11.7031 86.5 10.75 83.9062 10C81.3125 9.25 78.4531 8.875 75.3281 8.875C71.9531 8.875 68.8906 9.5625 66.1406 10.9375C63.3906 12.3125 61.125 14.1094 59.3438 16.3281C57.5938 18.5469 56.1094 21.125 54.8906 24.0625C53.7031 26.9688 52.8594 29.9062 52.3594 32.875C51.8594 35.8125 51.6094 38.7969 51.6094 41.8281C51.6094 44.8281 51.875 47.8125 52.4062 50.7812C52.9375 53.7188 53.8125 56.6406 55.0312 59.5469C56.2812 62.4531 57.8125 65 59.625 67.1875C61.4375 69.375 63.7187 71.1562 66.4687 72.5312C69.25 73.875 72.3281 74.5469 75.7031 74.5469C82.5781 74.5469 87.3594 73.0156 90.0469 69.9531L90.0469 50.9219C90.0469 50.2656 89.7812 49.6875 89.25 49.1875C88.7188 48.6562 88.1094 48.25 87.4219 47.9688C86.7344 47.6875 85.8125 47.4375 84.6562 47.2188C83.5312 46.9688 82.6094 46.7969 81.8906 46.7031C81.1719 46.6094 80.2656 46.5156 79.1719 46.4219C79.0469 45.9219 78.9844 45.5469 78.9844 45.2969C78.9844 45.0781 79.0469 44.7188 79.1719 44.2188C86.2344 44.4688 91.6719 44.5938 95.4844 44.5938C99.3594 44.5938 104.797 44.4688 111.797 44.2188C111.953 44.8438 112.031 45.2031 112.031 45.2969C112.031 45.4219 111.953 45.7969 111.797 46.4219C110.703 46.5156 109.797 46.6094 109.078 46.7031C108.359 46.7969 107.422 46.9688 106.266 47.2188C105.141 47.4375 104.234 47.6875 103.547 47.9688C102.891 48.25 102.297 48.6563 101.766 49.1875C101.234 49.6875 100.969 50.2656 100.969 50.9219V57.8594C100.969 63.7969 101.672 68.6563 103.078 72.4375C97.9219 74.3438 93.3437 75.7344 89.3437 76.6094C85.3437 77.4844 80.7969 77.9219 75.7031 77.9219C72.6719 77.9219 69.625 77.6094 66.5625 76.9844C63.5 76.3594 60.2812 75.1875 56.9062 73.4688C53.5625 71.75 50.6094 69.5938 48.0469 67C45.5156 64.4062 43.4062 60.9375 41.7187 56.5938C40.0625 52.25 39.2344 47.3281 39.2344 41.8281C39.2344 37.8594 39.6562 34.1875 40.5 30.8125C41.375 27.4062 42.5312 24.4844 43.9687 22.0469C45.4062 19.6094 47.1094 17.4219 49.0781 15.4844C51.0781 13.5469 53.1562 11.9688 55.3125 10.75C57.4688 9.53125 59.7344 8.53125 62.1094 7.75C64.5156 6.9375 66.7969 6.375 68.9531 6.0625C71.1094 5.71875 73.2344 5.54688 75.3281 5.54688C78.8281 5.54688 82.1562 5.76563 85.3125 6.20313C88.5 6.60938 91.6719 7.125 94.8281 7.75C97.9844 8.34375 100.484 8.75 102.328 8.96875C101.859 10.375 101.625 12.3594 101.625 14.9219C101.625 19.1719 102.391 23.3125 103.922 27.3438C103.734 27.9063 103.172 28.25 102.234 28.375Z" fill="black"/>
</svg>
